
<svg xmlns="http://www.w3.org/2000/svg" class="h-5 w-5" viewBox="0 0 44 55" fill="inherit">
  <path fill-rule="evenodd" d="M44,25.57a37.49,37.49,0,0,1-.27,6.53,35.07,35.07,0,0,1-2,7.49,3.47,3.47,0,0,1-1.85,1.91,44.81,44.81,0,0,1-5.75,2A3.39,3.39,0,0,0,31.68,46q-.63,2.8-1.48,5.55a3.34,3.34,0,0,1-2,2.17A19.81,19.81,0,0,1,21.62,55a19.92,19.92,0,0,1-6.56-1.24,3.4,3.4,0,0,1-2-2.23q-.81-2.72-1.39-5.49a3.42,3.42,0,0,0-2.43-2.61,44.34,44.34,0,0,1-5.72-2,3.44,3.44,0,0,1-1.86-1.92A34.32,34.32,0,0,1,0,34.17,1.54,1.54,0,0,1,1.7,32.33q3.41.41,6.83.66a1.69,1.69,0,0,1,1.56,1.58c.18,2.33.43,4.64.77,6.94a3.41,3.41,0,0,0,2.77,2.86,52.1,52.1,0,0,0,8,.67,53.49,53.49,0,0,0,8.08-.67,3.38,3.38,0,0,0,2.75-2.86q.49-3.3.75-6.63a1.56,1.56,0,0,0-.44-1.2,1.55,1.55,0,0,0-1.18-.47q-3.73.21-7.47.25a2.39,2.39,0,0,1-1.73-.71A2.47,2.47,0,0,1,21.66,31V23.76a2.76,2.76,0,0,1,.81-2,2.67,2.67,0,0,1,1.94-.8c3,0,5.95.16,8.92.35,2.47.17,4.94.39,7.4.68A3.71,3.71,0,0,1,44,25.57ZM1.74,22a1.57,1.57,0,0,1-1.32-.46A1.45,1.45,0,0,1,0,20.22a32.79,32.79,0,0,1,1-3.64,6.37,6.37,0,0,1,3.75-3.93,44.61,44.61,0,0,1,4.52-1.41,3.32,3.32,0,0,0,2.44-2.47c.41-1.85.91-3.67,1.47-5.46a3.23,3.23,0,0,1,2-2.09A20.76,20.76,0,0,1,21.91,0a20.83,20.83,0,0,1,6.64,1.2,3.34,3.34,0,0,1,2,2.14c.54,1.71,1,3.44,1.39,5.19a1.5,1.5,0,0,1-.43,1.34,1.59,1.59,0,0,1-1.38.43,56.88,56.88,0,0,0-8.24-.68,54.1,54.1,0,0,0-8.14.71A3.34,3.34,0,0,0,11,13.09c-.35,2.23-.6,4.48-.78,6.73a1.68,1.68,0,0,1-1.57,1.53Q5.19,21.6,1.74,22Z" clip-rule="evenodd" />
</svg>